<svg xmlns="http://www.w3.org/2000/svg" version="1.1" xmlns:xlink="http://www.w3.org/1999/xlink" xmlns:svgjs="http://svgjs.com/svgjs" width="1024" height="760" preserveAspectRatio="none" viewBox="0 0 1024 760"><g mask="url(&quot;#SvgjsMask1042&quot;)" fill="none"><rect width="1024" height="760" x="0" y="0" fill="rgba(240, 242, 245, 1)"></rect><path d="M-74.87 588.61L-74.87 588.61" stroke="rgba(62, 167, 237, 1)" stroke-width="1.5"></path><path d="M-74.87 588.61L62.59 591.7" stroke="rgba(62, 167, 237, 1)" stroke-width="1.5"></path><path d="M-74.87 588.61L-48.02 732.9" stroke="rgba(62, 167, 237, 1)" stroke-width="1.5"></path><path d="M-74.87 588.61L75.82 701.94" stroke="rgba(62, 167, 237, 1)" stroke-width="1.5"></path><path d="M-74.87 588.61L80.99 462.87" stroke="rgba(62, 167, 237, 1)" stroke-width="1.5"></path><path d="M-74.87 588.61L184.55 598.42" stroke="rgba(62, 167, 237, 1)" stroke-width="1.5"></path><path d="M-74.87 588.61L-93.09 851.97" stroke="rgba(62, 167, 237, 1)" stroke-width="1.5"></path><path d="M-48.02 732.9L-48.02 732.9" stroke="rgba(62, 167, 237, 1)" stroke-width="1.5"></path><path d="M-48.02 732.9L-93.09 851.97" stroke="rgba(62, 167, 237, 1)" stroke-width="1.5"></path><path d="M-48.02 732.9L75.82 701.94" stroke="rgba(62, 167, 237, 1)" stroke-width="1.5"></path><path d="M-93.09 851.97L-93.09 851.97" stroke="rgba(62, 167, 237, 1)" stroke-width="1.5"></path><path d="M-93.09 851.97L67.04 828.88" stroke="rgba(62, 167, 237, 1)" stroke-width="1.5"></path><path d="M-93.09 851.97L75.82 701.94" stroke="rgba(62, 167, 237, 1)" stroke-width="1.5"></path><path d="M80.99 462.87L80.99 462.87" stroke="rgba(62, 167, 237, 1)" stroke-width="1.5"></path><path d="M80.99 462.87L62.59 591.7" stroke="rgba(62, 167, 237, 1)" stroke-width="1.5"></path><path d="M80.99 462.87L184.55 598.42" stroke="rgba(62, 167, 237, 1)" stroke-width="1.5"></path><path d="M62.59 591.7L62.59 591.7" stroke="rgba(62, 167, 237, 1)" stroke-width="1.5"></path><path d="M62.59 591.7L75.82 701.94" stroke="rgba(62, 167, 237, 1)" stroke-width="1.5"></path><path d="M75.82 701.94L75.82 701.94" stroke="rgba(62, 167, 237, 1)" stroke-width="1.5"></path><path d="M75.82 701.94L67.04 828.88" stroke="rgba(62, 167, 237, 1)" stroke-width="1.5"></path><path d="M75.82 701.94L214.05 714.67" stroke="rgba(62, 167, 237, 1)" stroke-width="1.5"></path><path d="M75.82 701.94L184.55 598.42" stroke="rgba(62, 167, 237, 1)" stroke-width="1.5"></path><path d="M75.82 701.94L182.95 822.13" stroke="rgba(62, 167, 237, 1)" stroke-width="1.5"></path><path d="M67.04 828.88L67.04 828.88" stroke="rgba(62, 167, 237, 1)" stroke-width="1.5"></path><path d="M67.04 828.88L182.95 822.13" stroke="rgba(62, 167, 237, 1)" stroke-width="1.5"></path><path d="M184.55 598.42L184.55 598.42" stroke="rgba(62, 167, 237, 1)" stroke-width="1.5"></path><path d="M184.55 598.42L214.05 714.67" stroke="rgba(62, 167, 237, 1)" stroke-width="1.5"></path><path d="M184.55 598.42L62.59 591.7" stroke="rgba(62, 167, 237, 1)" stroke-width="1.5"></path><path d="M214.05 714.67L214.05 714.67" stroke="rgba(62, 167, 237, 1)" stroke-width="1.5"></path><path d="M214.05 714.67L182.95 822.13" stroke="rgba(62, 167, 237, 1)" stroke-width="1.5"></path><path d="M214.05 714.67L345.11 710.94" stroke="rgba(62, 167, 237, 1)" stroke-width="1.5"></path><path d="M182.95 822.13L182.95 822.13" stroke="rgba(62, 167, 237, 1)" stroke-width="1.5"></path><path d="M321.06 459.43L321.06 459.43" stroke="rgba(62, 167, 237, 1)" stroke-width="1.5"></path><path d="M321.06 459.43L425.48 477.69" stroke="rgba(62, 167, 237, 1)" stroke-width="1.5"></path><path d="M321.06 459.43L335.88 596.41" stroke="rgba(62, 167, 237, 1)" stroke-width="1.5"></path><path d="M335.88 596.41L335.88 596.41" stroke="rgba(62, 167, 237, 1)" stroke-width="1.5"></path><path d="M335.88 596.41L345.11 710.94" stroke="rgba(62, 167, 237, 1)" stroke-width="1.5"></path><path d="M335.88 596.41L457.31 581.87" stroke="rgba(62, 167, 237, 1)" stroke-width="1.5"></path><path d="M345.11 710.94L345.11 710.94" stroke="rgba(62, 167, 237, 1)" stroke-width="1.5"></path><path d="M345.11 710.94L331.03 819.4" stroke="rgba(62, 167, 237, 1)" stroke-width="1.5"></path><path d="M345.11 710.94L467.9 721.23" stroke="rgba(62, 167, 237, 1)" stroke-width="1.5"></path><path d="M331.03 819.4L331.03 819.4" stroke="rgba(62, 167, 237, 1)" stroke-width="1.5"></path><path d="M331.03 819.4L477.01 800.7" stroke="rgba(62, 167, 237, 1)" stroke-width="1.5"></path><path d="M331.03 819.4L182.95 822.13" stroke="rgba(62, 167, 237, 1)" stroke-width="1.5"></path><path d="M331.03 819.4L214.05 714.67" stroke="rgba(62, 167, 237, 1)" stroke-width="1.5"></path><path d="M331.03 819.4L467.9 721.23" stroke="rgba(62, 167, 237, 1)" stroke-width="1.5"></path><path d="M444.71 319.13L444.71 319.13" stroke="rgba(62, 167, 237, 1)" stroke-width="1.5"></path><path d="M444.71 319.13L559.1 349.5" stroke="rgba(62, 167, 237, 1)" stroke-width="1.5"></path><path d="M444.71 319.13L425.48 477.69" stroke="rgba(62, 167, 237, 1)" stroke-width="1.5"></path><path d="M444.71 319.13L590.45 422.82" stroke="rgba(62, 167, 237, 1)" stroke-width="1.5"></path><path d="M444.71 319.13L321.06 459.43" stroke="rgba(62, 167, 237, 1)" stroke-width="1.5"></path><path d="M444.71 319.13L457.31 581.87" stroke="rgba(62, 167, 237, 1)" stroke-width="1.5"></path><path d="M444.71 319.13L689.48 435.57" stroke="rgba(62, 167, 237, 1)" stroke-width="1.5"></path><path d="M425.48 477.69L425.48 477.69" stroke="rgba(62, 167, 237, 1)" stroke-width="1.5"></path><path d="M425.48 477.69L457.31 581.87" stroke="rgba(62, 167, 237, 1)" stroke-width="1.5"></path><path d="M425.48 477.69L335.88 596.41" stroke="rgba(62, 167, 237, 1)" stroke-width="1.5"></path><path d="M425.48 477.69L590.45 422.82" stroke="rgba(62, 167, 237, 1)" stroke-width="1.5"></path><path d="M457.31 581.87L457.31 581.87" stroke="rgba(62, 167, 237, 1)" stroke-width="1.5"></path><path d="M457.31 581.87L546.85 685.97" stroke="rgba(62, 167, 237, 1)" stroke-width="1.5"></path><path d="M457.31 581.87L467.9 721.23" stroke="rgba(62, 167, 237, 1)" stroke-width="1.5"></path><path d="M457.31 581.87L594.24 546.22" stroke="rgba(62, 167, 237, 1)" stroke-width="1.5"></path><path d="M467.9 721.23L467.9 721.23" stroke="rgba(62, 167, 237, 1)" stroke-width="1.5"></path><path d="M467.9 721.23L477.01 800.7" stroke="rgba(62, 167, 237, 1)" stroke-width="1.5"></path><path d="M467.9 721.23L546.85 685.97" stroke="rgba(62, 167, 237, 1)" stroke-width="1.5"></path><path d="M467.9 721.23L546.51 811.31" stroke="rgba(62, 167, 237, 1)" stroke-width="1.5"></path><path d="M477.01 800.7L477.01 800.7" stroke="rgba(62, 167, 237, 1)" stroke-width="1.5"></path><path d="M477.01 800.7L546.51 811.31" stroke="rgba(62, 167, 237, 1)" stroke-width="1.5"></path><path d="M477.01 800.7L546.85 685.97" stroke="rgba(62, 167, 237, 1)" stroke-width="1.5"></path><path d="M477.01 800.7L345.11 710.94" stroke="rgba(62, 167, 237, 1)" stroke-width="1.5"></path><path d="M477.01 800.7L457.31 581.87" stroke="rgba(62, 167, 237, 1)" stroke-width="1.5"></path><path d="M559.1 349.5L559.1 349.5" stroke="rgba(62, 167, 237, 1)" stroke-width="1.5"></path><path d="M559.1 349.5L590.45 422.82" stroke="rgba(62, 167, 237, 1)" stroke-width="1.5"></path><path d="M559.1 349.5L689.48 435.57" stroke="rgba(62, 167, 237, 1)" stroke-width="1.5"></path><path d="M559.1 349.5L727.9 317.74" stroke="rgba(62, 167, 237, 1)" stroke-width="1.5"></path><path d="M590.45 422.82L590.45 422.82" stroke="rgba(62, 167, 237, 1)" stroke-width="1.5"></path><path d="M590.45 422.82L689.48 435.57" stroke="rgba(62, 167, 237, 1)" stroke-width="1.5"></path><path d="M590.45 422.82L594.24 546.22" stroke="rgba(62, 167, 237, 1)" stroke-width="1.5"></path><path d="M590.45 422.82L727.9 317.74" stroke="rgba(62, 167, 237, 1)" stroke-width="1.5"></path><path d="M594.24 546.22L594.24 546.22" stroke="rgba(62, 167, 237, 1)" stroke-width="1.5"></path><path d="M594.24 546.22L689.48 435.57" stroke="rgba(62, 167, 237, 1)" stroke-width="1.5"></path><path d="M594.24 546.22L546.85 685.97" stroke="rgba(62, 167, 237, 1)" stroke-width="1.5"></path><path d="M594.24 546.22L425.48 477.69" stroke="rgba(62, 167, 237, 1)" stroke-width="1.5"></path><path d="M594.24 546.22L720.28 700.85" stroke="rgba(62, 167, 237, 1)" stroke-width="1.5"></path><path d="M546.85 685.97L546.85 685.97" stroke="rgba(62, 167, 237, 1)" stroke-width="1.5"></path><path d="M546.85 685.97L546.51 811.31" stroke="rgba(62, 167, 237, 1)" stroke-width="1.5"></path><path d="M546.51 811.31L546.51 811.31" stroke="rgba(62, 167, 237, 1)" stroke-width="1.5"></path><path d="M546.51 811.31L735 836.57" stroke="rgba(62, 167, 237, 1)" stroke-width="1.5"></path><path d="M546.51 811.31L720.28 700.85" stroke="rgba(62, 167, 237, 1)" stroke-width="1.5"></path><path d="M546.51 811.31L331.03 819.4" stroke="rgba(62, 167, 237, 1)" stroke-width="1.5"></path><path d="M733.01 -93.6L733.01 -93.6" stroke="rgba(62, 167, 237, 1)" stroke-width="1.5"></path><path d="M733.01 -93.6L803.18 -51.14" stroke="rgba(62, 167, 237, 1)" stroke-width="1.5"></path><path d="M733.01 -93.6L843.24 50.08" stroke="rgba(62, 167, 237, 1)" stroke-width="1.5"></path><path d="M733.01 -93.6L689.56 92.27" stroke="rgba(62, 167, 237, 1)" stroke-width="1.5"></path><path d="M733.01 -93.6L965.78 -43.99" stroke="rgba(62, 167, 237, 1)" stroke-width="1.5"></path><path d="M733.01 -93.6L934.85 83.05" stroke="rgba(62, 167, 237, 1)" stroke-width="1.5"></path><path d="M689.56 92.27L689.56 92.27" stroke="rgba(62, 167, 237, 1)" stroke-width="1.5"></path><path d="M689.56 92.27L714.38 220.57" stroke="rgba(62, 167, 237, 1)" stroke-width="1.5"></path><path d="M689.56 92.27L843.24 50.08" stroke="rgba(62, 167, 237, 1)" stroke-width="1.5"></path><path d="M689.56 92.27L820.01 193.79" stroke="rgba(62, 167, 237, 1)" stroke-width="1.5"></path><path d="M689.56 92.27L803.18 -51.14" stroke="rgba(62, 167, 237, 1)" stroke-width="1.5"></path><path d="M689.56 92.27L727.9 317.74" stroke="rgba(62, 167, 237, 1)" stroke-width="1.5"></path><path d="M714.38 220.57L714.38 220.57" stroke="rgba(62, 167, 237, 1)" stroke-width="1.5"></path><path d="M714.38 220.57L727.9 317.74" stroke="rgba(62, 167, 237, 1)" stroke-width="1.5"></path><path d="M714.38 220.57L820.01 193.79" stroke="rgba(62, 167, 237, 1)" stroke-width="1.5"></path><path d="M714.38 220.57L851.26 313.4" stroke="rgba(62, 167, 237, 1)" stroke-width="1.5"></path><path d="M714.38 220.57L559.1 349.5" stroke="rgba(62, 167, 237, 1)" stroke-width="1.5"></path><path d="M714.38 220.57L843.24 50.08" stroke="rgba(62, 167, 237, 1)" stroke-width="1.5"></path><path d="M727.9 317.74L727.9 317.74" stroke="rgba(62, 167, 237, 1)" stroke-width="1.5"></path><path d="M727.9 317.74L851.26 313.4" stroke="rgba(62, 167, 237, 1)" stroke-width="1.5"></path><path d="M727.9 317.74L689.48 435.57" stroke="rgba(62, 167, 237, 1)" stroke-width="1.5"></path><path d="M727.9 317.74L820.01 193.79" stroke="rgba(62, 167, 237, 1)" stroke-width="1.5"></path><path d="M727.9 317.74L857.19 417.48" stroke="rgba(62, 167, 237, 1)" stroke-width="1.5"></path><path d="M689.48 435.57L689.48 435.57" stroke="rgba(62, 167, 237, 1)" stroke-width="1.5"></path><path d="M689.48 435.57L857.19 417.48" stroke="rgba(62, 167, 237, 1)" stroke-width="1.5"></path><path d="M720.28 700.85L720.28 700.85" stroke="rgba(62, 167, 237, 1)" stroke-width="1.5"></path><path d="M720.28 700.85L819.31 689.02" stroke="rgba(62, 167, 237, 1)" stroke-width="1.5"></path><path d="M720.28 700.85L735 836.57" stroke="rgba(62, 167, 237, 1)" stroke-width="1.5"></path><path d="M720.28 700.85L546.85 685.97" stroke="rgba(62, 167, 237, 1)" stroke-width="1.5"></path><path d="M735 836.57L735 836.57" stroke="rgba(62, 167, 237, 1)" stroke-width="1.5"></path><path d="M735 836.57L819.31 689.02" stroke="rgba(62, 167, 237, 1)" stroke-width="1.5"></path><path d="M803.18 -51.14L803.18 -51.14" stroke="rgba(62, 167, 237, 1)" stroke-width="1.5"></path><path d="M803.18 -51.14L843.24 50.08" stroke="rgba(62, 167, 237, 1)" stroke-width="1.5"></path><path d="M843.24 50.08L843.24 50.08" stroke="rgba(62, 167, 237, 1)" stroke-width="1.5"></path><path d="M843.24 50.08L934.85 83.05" stroke="rgba(62, 167, 237, 1)" stroke-width="1.5"></path><path d="M843.24 50.08L820.01 193.79" stroke="rgba(62, 167, 237, 1)" stroke-width="1.5"></path><path d="M843.24 50.08L965.78 -43.99" stroke="rgba(62, 167, 237, 1)" stroke-width="1.5"></path><path d="M820.01 193.79L820.01 193.79" stroke="rgba(62, 167, 237, 1)" stroke-width="1.5"></path><path d="M820.01 193.79L851.26 313.4" stroke="rgba(62, 167, 237, 1)" stroke-width="1.5"></path><path d="M851.26 313.4L851.26 313.4" stroke="rgba(62, 167, 237, 1)" stroke-width="1.5"></path><path d="M851.26 313.4L941.11 309.87" stroke="rgba(62, 167, 237, 1)" stroke-width="1.5"></path><path d="M851.26 313.4L857.19 417.48" stroke="rgba(62, 167, 237, 1)" stroke-width="1.5"></path><path d="M857.19 417.48L857.19 417.48" stroke="rgba(62, 167, 237, 1)" stroke-width="1.5"></path><path d="M857.19 417.48L948.54 474.62" stroke="rgba(62, 167, 237, 1)" stroke-width="1.5"></path><path d="M857.19 417.48L941.11 309.87" stroke="rgba(62, 167, 237, 1)" stroke-width="1.5"></path><path d="M819.31 689.02L819.31 689.02" stroke="rgba(62, 167, 237, 1)" stroke-width="1.5"></path><path d="M819.31 689.02L991.94 720.69" stroke="rgba(62, 167, 237, 1)" stroke-width="1.5"></path><path d="M965.78 -43.99L965.78 -43.99" stroke="rgba(62, 167, 237, 1)" stroke-width="1.5"></path><path d="M965.78 -43.99L1086.44 -64.85" stroke="rgba(62, 167, 237, 1)" stroke-width="1.5"></path><path d="M965.78 -43.99L934.85 83.05" stroke="rgba(62, 167, 237, 1)" stroke-width="1.5"></path><path d="M934.85 83.05L934.85 83.05" stroke="rgba(62, 167, 237, 1)" stroke-width="1.5"></path><path d="M934.85 83.05L989.03 165.15" stroke="rgba(62, 167, 237, 1)" stroke-width="1.5"></path><path d="M989.03 165.15L989.03 165.15" stroke="rgba(62, 167, 237, 1)" stroke-width="1.5"></path><path d="M989.03 165.15L1092.53 223.67" stroke="rgba(62, 167, 237, 1)" stroke-width="1.5"></path><path d="M989.03 165.15L1091.22 71.74" stroke="rgba(62, 167, 237, 1)" stroke-width="1.5"></path><path d="M989.03 165.15L941.11 309.87" stroke="rgba(62, 167, 237, 1)" stroke-width="1.5"></path><path d="M941.11 309.87L941.11 309.87" stroke="rgba(62, 167, 237, 1)" stroke-width="1.5"></path><path d="M941.11 309.87L948.54 474.62" stroke="rgba(62, 167, 237, 1)" stroke-width="1.5"></path><path d="M941.11 309.87L820.01 193.79" stroke="rgba(62, 167, 237, 1)" stroke-width="1.5"></path><path d="M941.11 309.87L1092.53 223.67" stroke="rgba(62, 167, 237, 1)" stroke-width="1.5"></path><path d="M948.54 474.62L948.54 474.62" stroke="rgba(62, 167, 237, 1)" stroke-width="1.5"></path><path d="M948.54 474.62L989.38 600.08" stroke="rgba(62, 167, 237, 1)" stroke-width="1.5"></path><path d="M948.54 474.62L1083.06 469.99" stroke="rgba(62, 167, 237, 1)" stroke-width="1.5"></path><path d="M948.54 474.62L851.26 313.4" stroke="rgba(62, 167, 237, 1)" stroke-width="1.5"></path><path d="M989.38 600.08L989.38 600.08" stroke="rgba(62, 167, 237, 1)" stroke-width="1.5"></path><path d="M989.38 600.08L991.94 720.69" stroke="rgba(62, 167, 237, 1)" stroke-width="1.5"></path><path d="M989.38 600.08L1072.7 709.47" stroke="rgba(62, 167, 237, 1)" stroke-width="1.5"></path><path d="M991.94 720.69L991.94 720.69" stroke="rgba(62, 167, 237, 1)" stroke-width="1.5"></path><path d="M991.94 720.69L1072.7 709.47" stroke="rgba(62, 167, 237, 1)" stroke-width="1.5"></path><path d="M991.94 720.69L967.75 808.5" stroke="rgba(62, 167, 237, 1)" stroke-width="1.5"></path><path d="M991.94 720.69L948.54 474.62" stroke="rgba(62, 167, 237, 1)" stroke-width="1.5"></path><path d="M967.75 808.5L967.75 808.5" stroke="rgba(62, 167, 237, 1)" stroke-width="1.5"></path><path d="M967.75 808.5L1072.7 709.47" stroke="rgba(62, 167, 237, 1)" stroke-width="1.5"></path><path d="M1086.44 -64.85L1086.44 -64.85" stroke="rgba(62, 167, 237, 1)" stroke-width="1.5"></path><path d="M1086.44 -64.85L1091.22 71.74" stroke="rgba(62, 167, 237, 1)" stroke-width="1.5"></path><path d="M1086.44 -64.85L934.85 83.05" stroke="rgba(62, 167, 237, 1)" stroke-width="1.5"></path><path d="M1086.44 -64.85L989.03 165.15" stroke="rgba(62, 167, 237, 1)" stroke-width="1.5"></path><path d="M1091.22 71.74L1091.22 71.74" stroke="rgba(62, 167, 237, 1)" stroke-width="1.5"></path><path d="M1091.22 71.74L1092.53 223.67" stroke="rgba(62, 167, 237, 1)" stroke-width="1.5"></path><path d="M1092.53 223.67L1092.53 223.67" stroke="rgba(62, 167, 237, 1)" stroke-width="1.5"></path><path d="M1092.53 223.67L934.85 83.05" stroke="rgba(62, 167, 237, 1)" stroke-width="1.5"></path><path d="M1092.53 223.67L1083.06 469.99" stroke="rgba(62, 167, 237, 1)" stroke-width="1.5"></path><path d="M1092.53 223.67L851.26 313.4" stroke="rgba(62, 167, 237, 1)" stroke-width="1.5"></path><path d="M1083.06 469.99L1083.06 469.99" stroke="rgba(62, 167, 237, 1)" stroke-width="1.5"></path><path d="M1083.06 469.99L989.38 600.08" stroke="rgba(62, 167, 237, 1)" stroke-width="1.5"></path><path d="M1072.7 709.47L1072.7 709.47" stroke="rgba(62, 167, 237, 1)" stroke-width="1.5"></path><path d="M1072.7 709.47L1083.06 469.99" stroke="rgba(62, 167, 237, 1)" stroke-width="1.5"></path><path d="M1072.7 709.47L819.31 689.02" stroke="rgba(62, 167, 237, 1)" stroke-width="1.5"></path><path d="M1072.7 709.47L948.54 474.62" stroke="rgba(62, 167, 237, 1)" stroke-width="1.5"></path><circle r="5" cx="-74.87" cy="588.61" fill="rgba(62, 167, 237, 1)"></circle><circle r="5" cx="-48.02" cy="732.9" fill="rgba(62, 167, 237, 1)"></circle><circle r="5" cx="-93.09" cy="851.97" fill="rgba(62, 167, 237, 1)"></circle><circle r="5" cx="80.99" cy="462.87" fill="rgba(62, 167, 237, 1)"></circle><circle r="5" cx="62.59" cy="591.7" fill="rgba(62, 167, 237, 1)"></circle><circle r="5" cx="75.82" cy="701.94" fill="rgba(62, 167, 237, 1)"></circle><circle r="5" cx="67.04" cy="828.88" fill="rgba(62, 167, 237, 1)"></circle><circle r="5" cx="184.55" cy="598.42" fill="rgba(62, 167, 237, 1)"></circle><circle r="5" cx="214.05" cy="714.67" fill="rgba(62, 167, 237, 1)"></circle><circle r="5" cx="182.95" cy="822.13" fill="rgba(62, 167, 237, 1)"></circle><circle r="5" cx="321.06" cy="459.43" fill="rgba(62, 167, 237, 1)"></circle><circle r="5" cx="335.88" cy="596.41" fill="rgba(62, 167, 237, 1)"></circle><circle r="5" cx="345.11" cy="710.94" fill="rgba(62, 167, 237, 1)"></circle><circle r="5" cx="331.03" cy="819.4" fill="rgba(62, 167, 237, 1)"></circle><circle r="5" cx="444.71" cy="319.13" fill="rgba(62, 167, 237, 1)"></circle><circle r="5" cx="425.48" cy="477.69" fill="rgba(62, 167, 237, 1)"></circle><circle r="5" cx="457.31" cy="581.87" fill="rgba(62, 167, 237, 1)"></circle><circle r="5" cx="467.9" cy="721.23" fill="rgba(62, 167, 237, 1)"></circle><circle r="5" cx="477.01" cy="800.7" fill="rgba(62, 167, 237, 1)"></circle><circle r="5" cx="559.1" cy="349.5" fill="rgba(62, 167, 237, 1)"></circle><circle r="5" cx="590.45" cy="422.82" fill="rgba(62, 167, 237, 1)"></circle><circle r="5" cx="594.24" cy="546.22" fill="rgba(62, 167, 237, 1)"></circle><circle r="5" cx="546.85" cy="685.97" fill="rgba(62, 167, 237, 1)"></circle><circle r="5" cx="546.51" cy="811.31" fill="rgba(62, 167, 237, 1)"></circle><circle r="5" cx="733.01" cy="-93.6" fill="rgba(62, 167, 237, 1)"></circle><circle r="5" cx="689.56" cy="92.27" fill="rgba(62, 167, 237, 1)"></circle><circle r="5" cx="714.38" cy="220.57" fill="rgba(62, 167, 237, 1)"></circle><circle r="5" cx="727.9" cy="317.74" fill="rgba(62, 167, 237, 1)"></circle><circle r="5" cx="689.48" cy="435.57" fill="rgba(62, 167, 237, 1)"></circle><circle r="5" cx="720.28" cy="700.85" fill="rgba(62, 167, 237, 1)"></circle><circle r="5" cx="735" cy="836.57" fill="rgba(62, 167, 237, 1)"></circle><circle r="5" cx="803.18" cy="-51.14" fill="rgba(62, 167, 237, 1)"></circle><circle r="5" cx="843.24" cy="50.08" fill="rgba(62, 167, 237, 1)"></circle><circle r="5" cx="820.01" cy="193.79" fill="rgba(62, 167, 237, 1)"></circle><circle r="5" cx="851.26" cy="313.4" fill="rgba(62, 167, 237, 1)"></circle><circle r="5" cx="857.19" cy="417.48" fill="rgba(62, 167, 237, 1)"></circle><circle r="5" cx="819.31" cy="689.02" fill="rgba(62, 167, 237, 1)"></circle><circle r="5" cx="965.78" cy="-43.99" fill="rgba(62, 167, 237, 1)"></circle><circle r="5" cx="934.85" cy="83.05" fill="rgba(62, 167, 237, 1)"></circle><circle r="5" cx="989.03" cy="165.15" fill="rgba(62, 167, 237, 1)"></circle><circle r="5" cx="941.11" cy="309.87" fill="rgba(62, 167, 237, 1)"></circle><circle r="5" cx="948.54" cy="474.62" fill="rgba(62, 167, 237, 1)"></circle><circle r="5" cx="989.38" cy="600.08" fill="rgba(62, 167, 237, 1)"></circle><circle r="5" cx="991.94" cy="720.69" fill="rgba(62, 167, 237, 1)"></circle><circle r="5" cx="967.75" cy="808.5" fill="rgba(62, 167, 237, 1)"></circle><circle r="5" cx="1086.44" cy="-64.85" fill="rgba(62, 167, 237, 1)"></circle><circle r="5" cx="1091.22" cy="71.74" fill="rgba(62, 167, 237, 1)"></circle><circle r="5" cx="1092.53" cy="223.67" fill="rgba(62, 167, 237, 1)"></circle><circle r="5" cx="1083.06" cy="469.99" fill="rgba(62, 167, 237, 1)"></circle><circle r="5" cx="1072.7" cy="709.47" fill="rgba(62, 167, 237, 1)"></circle><path d="M70.77 851.05L70.77 851.05" stroke="hsl(228.79999999999995, 79.2%, 51.5%)" stroke-width="1.5"></path><path d="M70.77 851.05L43.05 722.72" stroke="hsl(228.79999999999995, 79.2%, 51.5%)" stroke-width="1.5"></path><path d="M70.77 851.05L208.68 825.76" stroke="hsl(228.79999999999995, 79.2%, 51.5%)" stroke-width="1.5"></path><path d="M70.77 851.05L-83.57 822.21" stroke="hsl(228.79999999999995, 79.2%, 51.5%)" stroke-width="1.5"></path><path d="M70.77 851.05L216.04 727.82" stroke="hsl(228.79999999999995, 79.2%, 51.5%)" stroke-width="1.5"></path><path d="M70.77 851.05L-48.72 674.84" stroke="hsl(228.79999999999995, 79.2%, 51.5%)" stroke-width="1.5"></path><path d="M70.77 851.05L326.07 816.12" stroke="hsl(228.79999999999995, 79.2%, 51.5%)" stroke-width="1.5"></path><path d="M474.03 589.82L474.03 589.82" stroke="hsl(228.79999999999995, 79.2%, 51.5%)" stroke-width="1.5"></path><path d="M474.03 589.82L439.29 677.64" stroke="hsl(228.79999999999995, 79.2%, 51.5%)" stroke-width="1.5"></path><path d="M474.03 589.82L574.02 710.96" stroke="hsl(228.79999999999995, 79.2%, 51.5%)" stroke-width="1.5"></path><path d="M474.03 589.82L593.72 469.91" stroke="hsl(228.79999999999995, 79.2%, 51.5%)" stroke-width="1.5"></path><path d="M460.75 853.14L460.75 853.14" stroke="hsl(228.79999999999995, 79.2%, 51.5%)" stroke-width="1.5"></path><path d="M460.75 853.14L555.79 825.78" stroke="hsl(228.79999999999995, 79.2%, 51.5%)" stroke-width="1.5"></path><path d="M460.75 853.14L326.07 816.12" stroke="hsl(228.79999999999995, 79.2%, 51.5%)" stroke-width="1.5"></path><path d="M460.75 853.14L439.29 677.64" stroke="hsl(228.79999999999995, 79.2%, 51.5%)" stroke-width="1.5"></path><path d="M460.75 853.14L574.02 710.96" stroke="hsl(228.79999999999995, 79.2%, 51.5%)" stroke-width="1.5"></path><path d="M833.33 213.98L833.33 213.98" stroke="hsl(228.79999999999995, 79.2%, 51.5%)" stroke-width="1.5"></path><path d="M833.33 213.98L850.92 328.03" stroke="hsl(228.79999999999995, 79.2%, 51.5%)" stroke-width="1.5"></path><path d="M833.33 213.98L945.99 166.81" stroke="hsl(228.79999999999995, 79.2%, 51.5%)" stroke-width="1.5"></path><path d="M833.33 213.98L715.68 301.5" stroke="hsl(228.79999999999995, 79.2%, 51.5%)" stroke-width="1.5"></path><path d="M833.33 213.98L818.18 37.68" stroke="hsl(228.79999999999995, 79.2%, 51.5%)" stroke-width="1.5"></path><path d="M833.33 213.98L946.86 60.44" stroke="hsl(228.79999999999995, 79.2%, 51.5%)" stroke-width="1.5"></path><path d="M850.92 328.03L850.92 328.03" stroke="hsl(228.79999999999995, 79.2%, 51.5%)" stroke-width="1.5"></path><path d="M850.92 328.03L715.68 301.5" stroke="hsl(228.79999999999995, 79.2%, 51.5%)" stroke-width="1.5"></path><path d="M946.86 60.44L946.86 60.44" stroke="hsl(228.79999999999995, 79.2%, 51.5%)" stroke-width="1.5"></path><path d="M946.86 60.44L945.99 166.81" stroke="hsl(228.79999999999995, 79.2%, 51.5%)" stroke-width="1.5"></path><path d="M946.86 60.44L976.19 -45.6" stroke="hsl(228.79999999999995, 79.2%, 51.5%)" stroke-width="1.5"></path><path d="M946.86 60.44L818.18 37.68" stroke="hsl(228.79999999999995, 79.2%, 51.5%)" stroke-width="1.5"></path><path d="M946.86 60.44L1117.88 74.59" stroke="hsl(228.79999999999995, 79.2%, 51.5%)" stroke-width="1.5"></path><path d="M946.86 60.44L841.1 -88.25" stroke="hsl(228.79999999999995, 79.2%, 51.5%)" stroke-width="1.5"></path><path d="M945.99 166.81L945.99 166.81" stroke="hsl(228.79999999999995, 79.2%, 51.5%)" stroke-width="1.5"></path><path d="M-48.72 674.84L-48.72 674.84" stroke="hsl(228.79999999999995, 79.2%, 51.5%)" stroke-width="1.5"></path><path d="M-48.72 674.84L43.05 722.72" stroke="hsl(228.79999999999995, 79.2%, 51.5%)" stroke-width="1.5"></path><path d="M-83.57 822.21L-83.57 822.21" stroke="hsl(228.79999999999995, 79.2%, 51.5%)" stroke-width="1.5"></path><path d="M-83.57 822.21L-48.72 674.84" stroke="hsl(228.79999999999995, 79.2%, 51.5%)" stroke-width="1.5"></path><path d="M-83.57 822.21L43.05 722.72" stroke="hsl(228.79999999999995, 79.2%, 51.5%)" stroke-width="1.5"></path><path d="M43.05 722.72L43.05 722.72" stroke="hsl(228.79999999999995, 79.2%, 51.5%)" stroke-width="1.5"></path><path d="M43.05 722.72L216.04 727.82" stroke="hsl(228.79999999999995, 79.2%, 51.5%)" stroke-width="1.5"></path><path d="M43.05 722.72L208.68 825.76" stroke="hsl(228.79999999999995, 79.2%, 51.5%)" stroke-width="1.5"></path><path d="M43.05 722.72L305.14 712.28" stroke="hsl(228.79999999999995, 79.2%, 51.5%)" stroke-width="1.5"></path><path d="M216.04 727.82L216.04 727.82" stroke="hsl(228.79999999999995, 79.2%, 51.5%)" stroke-width="1.5"></path><path d="M216.04 727.82L305.14 712.28" stroke="hsl(228.79999999999995, 79.2%, 51.5%)" stroke-width="1.5"></path><path d="M216.04 727.82L208.68 825.76" stroke="hsl(228.79999999999995, 79.2%, 51.5%)" stroke-width="1.5"></path><path d="M216.04 727.82L326.07 816.12" stroke="hsl(228.79999999999995, 79.2%, 51.5%)" stroke-width="1.5"></path><path d="M208.68 825.76L208.68 825.76" stroke="hsl(228.79999999999995, 79.2%, 51.5%)" stroke-width="1.5"></path><path d="M208.68 825.76L326.07 816.12" stroke="hsl(228.79999999999995, 79.2%, 51.5%)" stroke-width="1.5"></path><path d="M292.59 605.92L292.59 605.92" stroke="hsl(228.79999999999995, 79.2%, 51.5%)" stroke-width="1.5"></path><path d="M292.59 605.92L305.14 712.28" stroke="hsl(228.79999999999995, 79.2%, 51.5%)" stroke-width="1.5"></path><path d="M292.59 605.92L216.04 727.82" stroke="hsl(228.79999999999995, 79.2%, 51.5%)" stroke-width="1.5"></path><path d="M292.59 605.92L439.29 677.64" stroke="hsl(228.79999999999995, 79.2%, 51.5%)" stroke-width="1.5"></path><path d="M292.59 605.92L474.03 589.82" stroke="hsl(228.79999999999995, 79.2%, 51.5%)" stroke-width="1.5"></path><path d="M305.14 712.28L305.14 712.28" stroke="hsl(228.79999999999995, 79.2%, 51.5%)" stroke-width="1.5"></path><path d="M305.14 712.28L326.07 816.12" stroke="hsl(228.79999999999995, 79.2%, 51.5%)" stroke-width="1.5"></path><path d="M326.07 816.12L326.07 816.12" stroke="hsl(228.79999999999995, 79.2%, 51.5%)" stroke-width="1.5"></path><path d="M439.29 677.64L439.29 677.64" stroke="hsl(228.79999999999995, 79.2%, 51.5%)" stroke-width="1.5"></path><path d="M439.29 677.64L305.14 712.28" stroke="hsl(228.79999999999995, 79.2%, 51.5%)" stroke-width="1.5"></path><path d="M439.29 677.64L574.02 710.96" stroke="hsl(228.79999999999995, 79.2%, 51.5%)" stroke-width="1.5"></path><path d="M439.29 677.64L326.07 816.12" stroke="hsl(228.79999999999995, 79.2%, 51.5%)" stroke-width="1.5"></path><path d="M593.72 469.91L593.72 469.91" stroke="hsl(228.79999999999995, 79.2%, 51.5%)" stroke-width="1.5"></path><path d="M593.72 469.91L693.47 416.48" stroke="hsl(228.79999999999995, 79.2%, 51.5%)" stroke-width="1.5"></path><path d="M593.72 469.91L678.46 603.62" stroke="hsl(228.79999999999995, 79.2%, 51.5%)" stroke-width="1.5"></path><path d="M574.02 710.96L574.02 710.96" stroke="hsl(228.79999999999995, 79.2%, 51.5%)" stroke-width="1.5"></path><path d="M574.02 710.96L688.42 691.21" stroke="hsl(228.79999999999995, 79.2%, 51.5%)" stroke-width="1.5"></path><path d="M574.02 710.96L555.79 825.78" stroke="hsl(228.79999999999995, 79.2%, 51.5%)" stroke-width="1.5"></path><path d="M574.02 710.96L678.46 603.62" stroke="hsl(228.79999999999995, 79.2%, 51.5%)" stroke-width="1.5"></path><path d="M555.79 825.78L555.79 825.78" stroke="hsl(228.79999999999995, 79.2%, 51.5%)" stroke-width="1.5"></path><path d="M555.79 825.78L711.15 806.9" stroke="hsl(228.79999999999995, 79.2%, 51.5%)" stroke-width="1.5"></path><path d="M555.79 825.78L439.29 677.64" stroke="hsl(228.79999999999995, 79.2%, 51.5%)" stroke-width="1.5"></path><path d="M555.79 825.78L688.42 691.21" stroke="hsl(228.79999999999995, 79.2%, 51.5%)" stroke-width="1.5"></path><path d="M715.68 301.5L715.68 301.5" stroke="hsl(228.79999999999995, 79.2%, 51.5%)" stroke-width="1.5"></path><path d="M715.68 301.5L693.47 416.48" stroke="hsl(228.79999999999995, 79.2%, 51.5%)" stroke-width="1.5"></path><path d="M715.68 301.5L593.72 469.91" stroke="hsl(228.79999999999995, 79.2%, 51.5%)" stroke-width="1.5"></path><path d="M715.68 301.5L945.99 166.81" stroke="hsl(228.79999999999995, 79.2%, 51.5%)" stroke-width="1.5"></path><path d="M715.68 301.5L818.18 37.68" stroke="hsl(228.79999999999995, 79.2%, 51.5%)" stroke-width="1.5"></path><path d="M693.47 416.48L693.47 416.48" stroke="hsl(228.79999999999995, 79.2%, 51.5%)" stroke-width="1.5"></path><path d="M678.46 603.62L678.46 603.62" stroke="hsl(228.79999999999995, 79.2%, 51.5%)" stroke-width="1.5"></path><path d="M678.46 603.62L688.42 691.21" stroke="hsl(228.79999999999995, 79.2%, 51.5%)" stroke-width="1.5"></path><path d="M688.42 691.21L688.42 691.21" stroke="hsl(228.79999999999995, 79.2%, 51.5%)" stroke-width="1.5"></path><path d="M688.42 691.21L711.15 806.9" stroke="hsl(228.79999999999995, 79.2%, 51.5%)" stroke-width="1.5"></path><path d="M688.42 691.21L856.64 734.5" stroke="hsl(228.79999999999995, 79.2%, 51.5%)" stroke-width="1.5"></path><path d="M711.15 806.9L711.15 806.9" stroke="hsl(228.79999999999995, 79.2%, 51.5%)" stroke-width="1.5"></path><path d="M711.15 806.9L817.73 813.97" stroke="hsl(228.79999999999995, 79.2%, 51.5%)" stroke-width="1.5"></path><path d="M711.15 806.9L856.64 734.5" stroke="hsl(228.79999999999995, 79.2%, 51.5%)" stroke-width="1.5"></path><path d="M841.1 -88.25L841.1 -88.25" stroke="hsl(228.79999999999995, 79.2%, 51.5%)" stroke-width="1.5"></path><path d="M841.1 -88.25L818.18 37.68" stroke="hsl(228.79999999999995, 79.2%, 51.5%)" stroke-width="1.5"></path><path d="M841.1 -88.25L976.19 -45.6" stroke="hsl(228.79999999999995, 79.2%, 51.5%)" stroke-width="1.5"></path><path d="M818.18 37.68L818.18 37.68" stroke="hsl(228.79999999999995, 79.2%, 51.5%)" stroke-width="1.5"></path><path d="M818.18 37.68L976.19 -45.6" stroke="hsl(228.79999999999995, 79.2%, 51.5%)" stroke-width="1.5"></path><path d="M818.18 37.68L945.99 166.81" stroke="hsl(228.79999999999995, 79.2%, 51.5%)" stroke-width="1.5"></path><path d="M860.07 560.89L860.07 560.89" stroke="hsl(228.79999999999995, 79.2%, 51.5%)" stroke-width="1.5"></path><path d="M860.07 560.89L929.92 568.08" stroke="hsl(228.79999999999995, 79.2%, 51.5%)" stroke-width="1.5"></path><path d="M860.07 560.89L952.29 478.89" stroke="hsl(228.79999999999995, 79.2%, 51.5%)" stroke-width="1.5"></path><path d="M856.64 734.5L856.64 734.5" stroke="hsl(228.79999999999995, 79.2%, 51.5%)" stroke-width="1.5"></path><path d="M856.64 734.5L817.73 813.97" stroke="hsl(228.79999999999995, 79.2%, 51.5%)" stroke-width="1.5"></path><path d="M856.64 734.5L933.92 805.6" stroke="hsl(228.79999999999995, 79.2%, 51.5%)" stroke-width="1.5"></path><path d="M856.64 734.5L970.47 689.38" stroke="hsl(228.79999999999995, 79.2%, 51.5%)" stroke-width="1.5"></path><path d="M856.64 734.5L860.07 560.89" stroke="hsl(228.79999999999995, 79.2%, 51.5%)" stroke-width="1.5"></path><path d="M817.73 813.97L817.73 813.97" stroke="hsl(228.79999999999995, 79.2%, 51.5%)" stroke-width="1.5"></path><path d="M817.73 813.97L933.92 805.6" stroke="hsl(228.79999999999995, 79.2%, 51.5%)" stroke-width="1.5"></path><path d="M817.73 813.97L688.42 691.21" stroke="hsl(228.79999999999995, 79.2%, 51.5%)" stroke-width="1.5"></path><path d="M817.73 813.97L970.47 689.38" stroke="hsl(228.79999999999995, 79.2%, 51.5%)" stroke-width="1.5"></path><path d="M976.19 -45.6L976.19 -45.6" stroke="hsl(228.79999999999995, 79.2%, 51.5%)" stroke-width="1.5"></path><path d="M976.19 -45.6L1106.65 -49.05" stroke="hsl(228.79999999999995, 79.2%, 51.5%)" stroke-width="1.5"></path><path d="M976.19 -45.6L1117.88 74.59" stroke="hsl(228.79999999999995, 79.2%, 51.5%)" stroke-width="1.5"></path><path d="M976.19 -45.6L945.99 166.81" stroke="hsl(228.79999999999995, 79.2%, 51.5%)" stroke-width="1.5"></path><path d="M952.29 478.89L952.29 478.89" stroke="hsl(228.79999999999995, 79.2%, 51.5%)" stroke-width="1.5"></path><path d="M952.29 478.89L929.92 568.08" stroke="hsl(228.79999999999995, 79.2%, 51.5%)" stroke-width="1.5"></path><path d="M952.29 478.89L1074.87 418.16" stroke="hsl(228.79999999999995, 79.2%, 51.5%)" stroke-width="1.5"></path><path d="M929.92 568.08L929.92 568.08" stroke="hsl(228.79999999999995, 79.2%, 51.5%)" stroke-width="1.5"></path><path d="M970.47 689.38L970.47 689.38" stroke="hsl(228.79999999999995, 79.2%, 51.5%)" stroke-width="1.5"></path><path d="M970.47 689.38L1082.76 735.11" stroke="hsl(228.79999999999995, 79.2%, 51.5%)" stroke-width="1.5"></path><path d="M970.47 689.38L933.92 805.6" stroke="hsl(228.79999999999995, 79.2%, 51.5%)" stroke-width="1.5"></path><path d="M933.92 805.6L933.92 805.6" stroke="hsl(228.79999999999995, 79.2%, 51.5%)" stroke-width="1.5"></path><path d="M933.92 805.6L1082.76 735.11" stroke="hsl(228.79999999999995, 79.2%, 51.5%)" stroke-width="1.5"></path><path d="M933.92 805.6L1103.15 833.18" stroke="hsl(228.79999999999995, 79.2%, 51.5%)" stroke-width="1.5"></path><path d="M1106.65 -49.05L1106.65 -49.05" stroke="hsl(228.79999999999995, 79.2%, 51.5%)" stroke-width="1.5"></path><path d="M1106.65 -49.05L1117.88 74.59" stroke="hsl(228.79999999999995, 79.2%, 51.5%)" stroke-width="1.5"></path><path d="M1106.65 -49.05L946.86 60.44" stroke="hsl(228.79999999999995, 79.2%, 51.5%)" stroke-width="1.5"></path><path d="M1106.65 -49.05L1099.39 170.2" stroke="hsl(228.79999999999995, 79.2%, 51.5%)" stroke-width="1.5"></path><path d="M1106.65 -49.05L841.1 -88.25" stroke="hsl(228.79999999999995, 79.2%, 51.5%)" stroke-width="1.5"></path><path d="M1117.88 74.59L1117.88 74.59" stroke="hsl(228.79999999999995, 79.2%, 51.5%)" stroke-width="1.5"></path><path d="M1117.88 74.59L1099.39 170.2" stroke="hsl(228.79999999999995, 79.2%, 51.5%)" stroke-width="1.5"></path><path d="M1117.88 74.59L945.99 166.81" stroke="hsl(228.79999999999995, 79.2%, 51.5%)" stroke-width="1.5"></path><path d="M1099.39 170.2L1099.39 170.2" stroke="hsl(228.79999999999995, 79.2%, 51.5%)" stroke-width="1.5"></path><path d="M1099.39 170.2L1067.85 314.84" stroke="hsl(228.79999999999995, 79.2%, 51.5%)" stroke-width="1.5"></path><path d="M1099.39 170.2L945.99 166.81" stroke="hsl(228.79999999999995, 79.2%, 51.5%)" stroke-width="1.5"></path><path d="M1067.85 314.84L1067.85 314.84" stroke="hsl(228.79999999999995, 79.2%, 51.5%)" stroke-width="1.5"></path><path d="M1067.85 314.84L1074.87 418.16" stroke="hsl(228.79999999999995, 79.2%, 51.5%)" stroke-width="1.5"></path><path d="M1067.85 314.84L945.99 166.81" stroke="hsl(228.79999999999995, 79.2%, 51.5%)" stroke-width="1.5"></path><path d="M1067.85 314.84L952.29 478.89" stroke="hsl(228.79999999999995, 79.2%, 51.5%)" stroke-width="1.5"></path><path d="M1074.87 418.16L1074.87 418.16" stroke="hsl(228.79999999999995, 79.2%, 51.5%)" stroke-width="1.5"></path><path d="M1060.87 596.56L1060.87 596.56" stroke="hsl(228.79999999999995, 79.2%, 51.5%)" stroke-width="1.5"></path><path d="M1060.87 596.56L970.47 689.38" stroke="hsl(228.79999999999995, 79.2%, 51.5%)" stroke-width="1.5"></path><path d="M1060.87 596.56L929.92 568.08" stroke="hsl(228.79999999999995, 79.2%, 51.5%)" stroke-width="1.5"></path><path d="M1060.87 596.56L1082.76 735.11" stroke="hsl(228.79999999999995, 79.2%, 51.5%)" stroke-width="1.5"></path><path d="M1082.76 735.11L1082.76 735.11" stroke="hsl(228.79999999999995, 79.2%, 51.5%)" stroke-width="1.5"></path><path d="M1082.76 735.11L1103.15 833.18" stroke="hsl(228.79999999999995, 79.2%, 51.5%)" stroke-width="1.5"></path><path d="M1103.15 833.18L1103.15 833.18" stroke="hsl(228.79999999999995, 79.2%, 51.5%)" stroke-width="1.5"></path><path d="M1103.15 833.18L970.47 689.38" stroke="hsl(228.79999999999995, 79.2%, 51.5%)" stroke-width="1.5"></path><circle r="25" cx="70.77" cy="851.05" fill="url(#SvgjsRadialGradient1043)"></circle><circle r="25" cx="474.03" cy="589.82" fill="url(#SvgjsRadialGradient1043)"></circle><circle r="25" cx="460.75" cy="853.14" fill="url(#SvgjsRadialGradient1043)"></circle><circle r="25" cx="833.33" cy="213.98" fill="url(#SvgjsRadialGradient1043)"></circle><circle r="25" cx="850.92" cy="328.03" fill="url(#SvgjsRadialGradient1043)"></circle><circle r="25" cx="946.86" cy="60.44" fill="url(#SvgjsRadialGradient1043)"></circle><circle r="25" cx="945.99" cy="166.81" fill="url(#SvgjsRadialGradient1043)"></circle><circle r="5" cx="-48.72" cy="674.84" fill="#8a99da"></circle><circle r="5" cx="-83.57" cy="822.21" fill="#8a99da"></circle><circle r="5" cx="43.05" cy="722.72" fill="#8a99da"></circle><circle r="5" cx="216.04" cy="727.82" fill="#8a99da"></circle><circle r="5" cx="208.68" cy="825.76" fill="#8a99da"></circle><circle r="5" cx="292.59" cy="605.92" fill="#8a99da"></circle><circle r="5" cx="305.14" cy="712.28" fill="#8a99da"></circle><circle r="5" cx="326.07" cy="816.12" fill="#8a99da"></circle><circle r="5" cx="439.29" cy="677.64" fill="#8a99da"></circle><circle r="5" cx="593.72" cy="469.91" fill="#8a99da"></circle><circle r="5" cx="574.02" cy="710.96" fill="#8a99da"></circle><circle r="5" cx="555.79" cy="825.78" fill="#8a99da"></circle><circle r="5" cx="715.68" cy="301.5" fill="#8a99da"></circle><circle r="5" cx="693.47" cy="416.48" fill="#8a99da"></circle><circle r="5" cx="678.46" cy="603.62" fill="#8a99da"></circle><circle r="5" cx="688.42" cy="691.21" fill="#8a99da"></circle><circle r="5" cx="711.15" cy="806.9" fill="#8a99da"></circle><circle r="5" cx="841.1" cy="-88.25" fill="#8a99da"></circle><circle r="5" cx="818.18" cy="37.68" fill="#8a99da"></circle><circle r="5" cx="860.07" cy="560.89" fill="#8a99da"></circle><circle r="5" cx="856.64" cy="734.5" fill="#8a99da"></circle><circle r="5" cx="817.73" cy="813.97" fill="#8a99da"></circle><circle r="5" cx="976.19" cy="-45.6" fill="#8a99da"></circle><circle r="5" cx="952.29" cy="478.89" fill="#8a99da"></circle><circle r="5" cx="929.92" cy="568.08" fill="#8a99da"></circle><circle r="5" cx="970.47" cy="689.38" fill="#8a99da"></circle><circle r="5" cx="933.92" cy="805.6" fill="#8a99da"></circle><circle r="5" cx="1106.65" cy="-49.05" fill="#8a99da"></circle><circle r="5" cx="1117.88" cy="74.59" fill="#8a99da"></circle><circle r="5" cx="1099.39" cy="170.2" fill="#8a99da"></circle><circle r="5" cx="1067.85" cy="314.84" fill="#8a99da"></circle><circle r="5" cx="1074.87" cy="418.16" fill="#8a99da"></circle><circle r="5" cx="1060.87" cy="596.56" fill="#8a99da"></circle><circle r="5" cx="1082.76" cy="735.11" fill="#8a99da"></circle><circle r="5" cx="1103.15" cy="833.18" fill="#8a99da"></circle></g><defs><mask id="SvgjsMask1042"><rect width="1024" height="760" fill="#ffffff"></rect></mask><radialGradient id="SvgjsRadialGradient1043"><stop stop-color="#ffffff" offset="0.1"></stop><stop stop-color="rgba(21, 51, 181, 1)" offset="0.2"></stop><stop stop-color="rgba(21, 51, 181, 0)" offset="1"></stop></radialGradient></defs></svg>